<svg xmlns="http://www.w3.org/2000/svg" width="35.362" height="24.864" viewBox="0 0 35.362 24.864"><path d="M35.673,8.39a4.443,4.443,0,0,0-3.126-3.147C29.789,4.5,18.731,4.5,18.731,4.5s-11.058,0-13.816.744A4.443,4.443,0,0,0,1.789,8.39c-.739,2.776-.739,8.567-.739,8.567s0,5.791.739,8.567a4.377,4.377,0,0,0,3.126,3.1c2.758.744,13.816.744,13.816.744s11.058,0,13.816-.744a4.377,4.377,0,0,0,3.126-3.1c.739-2.776.739-8.567.739-8.567s0-5.791-.739-8.567ZM15.114,22.215V11.7l9.242,5.258-9.242,5.258Z" transform="translate(-1.05 -4.5)" fill="#fff"/></svg>