<svg xmlns="http://www.w3.org/2000/svg" width="38.401" height="38.392" viewBox="0 0 38.401 38.392"><path d="M19.2,11.591a9.843,9.843,0,1,0,9.843,9.843A9.828,9.828,0,0,0,19.2,11.591Zm0,16.243a6.4,6.4,0,1,1,6.4-6.4,6.411,6.411,0,0,1-6.4,6.4ZM31.741,11.188a2.3,2.3,0,1,1-2.3-2.3A2.291,2.291,0,0,1,31.741,11.188Zm6.519,2.33c-.146-3.076-.848-5.8-3.1-8.044s-4.969-2.947-8.044-3.1c-3.17-.18-12.67-.18-15.84,0-3.067.146-5.791.848-8.044,3.093S.284,10.434.13,13.51c-.18,3.17-.18,12.67,0,15.84.146,3.076.848,5.8,3.1,8.044s4.969,2.947,8.044,3.1c3.17.18,12.67.18,15.84,0,3.076-.146,5.8-.848,8.044-3.1s2.947-4.969,3.1-8.044c.18-3.17.18-12.662,0-15.832ZM34.166,32.751A6.479,6.479,0,0,1,30.516,36.4c-2.527,1-8.524.771-11.317.771s-8.8.223-11.317-.771a6.479,6.479,0,0,1-3.649-3.649c-1-2.527-.771-8.524-.771-11.317s-.223-8.8.771-11.317A6.479,6.479,0,0,1,7.883,6.468c2.527-1,8.524-.771,11.317-.771s8.8-.223,11.317.771a6.479,6.479,0,0,1,3.649,3.649c1,2.527.771,8.524.771,11.317S35.168,30.232,34.166,32.751Z" transform="translate(0.005 -2.238)" fill="#fff"/></svg>