<svg xmlns="http://www.w3.org/2000/svg" width="20.475" height="20.475" viewBox="0 0 20.475 20.475" fill="#fff"><path d="M2.779,7.225,6.969,18.7A8.784,8.784,0,0,1,2.779,7.225Zm13.949,3.133a4.631,4.631,0,0,0-.722-2.423,4.107,4.107,0,0,1-.863-2.06,1.52,1.52,0,0,1,1.474-1.56c.037,0,.074,0,.116.008A8.781,8.781,0,0,0,3.46,5.974c.206.008.4.012.566.012.916,0,2.341-.111,2.341-.111a.362.362,0,0,1,.058.722s-.475.054-1,.083l3.2,9.511,1.924-5.763L9.178,6.68C8.7,6.651,8.257,6.6,8.257,6.6a.362.362,0,0,1,.054-.722s1.449.111,2.312.111c.916,0,2.341-.111,2.341-.111a.362.362,0,0,1,.058.722s-.475.054-1,.083l3.175,9.441.875-2.927A10.84,10.84,0,0,0,16.728,10.358Zm-5.775,1.21L8.319,19.226a8.751,8.751,0,0,0,5.4-.14.658.658,0,0,1-.062-.12l-2.7-7.4Zm7.554-4.983a6.842,6.842,0,0,1,.058.9,8.25,8.25,0,0,1-.669,3.146l-2.683,7.757A8.791,8.791,0,0,0,18.507,6.585ZM21.038,10.8A10.238,10.238,0,1,1,10.8.563,10.249,10.249,0,0,1,21.038,10.8Zm-.471,0A9.767,9.767,0,1,0,10.8,20.567,9.779,9.779,0,0,0,20.567,10.8Z" transform="translate(-0.563 -0.563)"/></svg>