<svg xmlns="http://www.w3.org/2000/svg" width="41.162" height="40.133" viewBox="0 0 41.162 40.133"><path d="M13.768,32.878c0,.166-.191.3-.432.3-.274.025-.465-.108-.465-.3,0-.166.191-.3.432-.3C13.552,32.554,13.768,32.687,13.768,32.878ZM11.187,32.5c-.058.166.108.357.357.407a.389.389,0,0,0,.515-.166c.05-.166-.108-.357-.357-.432A.426.426,0,0,0,11.187,32.5Zm3.668-.141c-.241.058-.407.216-.382.407.025.166.241.274.49.216s.407-.216.382-.382S15.1,32.338,14.855,32.363ZM20.315.563A19.9,19.9,0,0,0,0,20.811,20.806,20.806,0,0,0,14.066,40.662c1.062.191,1.436-.465,1.436-1,0-.515-.025-3.353-.025-5.1,0,0-5.809,1.245-7.029-2.473,0,0-.946-2.415-2.307-3.037,0,0-1.9-1.3.133-1.278a4.381,4.381,0,0,1,3.2,2.141c1.817,3.2,4.863,2.282,6.05,1.734a4.612,4.612,0,0,1,1.328-2.8c-4.639-.515-9.32-1.187-9.32-9.17a6.289,6.289,0,0,1,1.959-4.888A7.841,7.841,0,0,1,9.71,9.16c1.734-.539,5.726,2.241,5.726,2.241a19.605,19.605,0,0,1,10.423,0s3.992-2.788,5.726-2.241a7.837,7.837,0,0,1,.216,5.635,6.451,6.451,0,0,1,2.141,4.888c0,8.008-4.888,8.647-9.527,9.17A4.908,4.908,0,0,1,25.826,32.7c0,2.8-.025,6.257-.025,6.938,0,.539.382,1.2,1.436,1A20.614,20.614,0,0,0,41.162,20.811C41.162,9.3,31.826.563,20.315.563ZM8.066,29.185c-.108.083-.083.274.058.432.133.133.324.191.432.083.108-.083.083-.274-.058-.432C8.365,29.135,8.174,29.077,8.066,29.185Zm-.9-.672c-.058.108.025.241.191.324a.247.247,0,0,0,.357-.058c.058-.108-.025-.241-.191-.324C7.361,28.4,7.228,28.43,7.17,28.513Zm2.689,2.954c-.133.108-.083.357.108.515.191.191.432.216.539.083.108-.108.058-.357-.108-.515C10.216,31.359,9.967,31.334,9.859,31.467Zm-.946-1.22c-.133.083-.133.3,0,.49s.357.274.465.191a.379.379,0,0,0,0-.515C9.261,30.222,9.046,30.139,8.913,30.247Z" transform="translate(0 -0.563)" fill="#fff"/></svg>