<svg xmlns="http://www.w3.org/2000/svg" width="22.021" height="22.021" viewBox="0 0 22.021 22.021" fill="#fff"><path d="M13.375,10.714v3.495a.155.155,0,0,1-.157.157h-.56a.163.163,0,0,1-.128-.064l-1.6-2.163v2.074a.155.155,0,0,1-.157.157h-.56a.155.155,0,0,1-.157-.157V10.719a.155.155,0,0,1,.157-.157h.555a.148.148,0,0,1,.128.069l1.6,2.163V10.719a.155.155,0,0,1,.157-.157h.56A.155.155,0,0,1,13.375,10.714Zm-4.031-.157h-.56a.155.155,0,0,0-.157.157v3.495a.155.155,0,0,0,.157.157h.56a.155.155,0,0,0,.157-.157V10.714A.158.158,0,0,0,9.344,10.557Zm-1.352,2.93H6.464V10.714a.155.155,0,0,0-.157-.157h-.56a.155.155,0,0,0-.157.157v3.495a.145.145,0,0,0,.044.108.166.166,0,0,0,.108.044H7.987a.155.155,0,0,0,.157-.157v-.56a.157.157,0,0,0-.152-.157Zm8.332-2.93H14.078a.158.158,0,0,0-.157.157v3.495a.158.158,0,0,0,.157.157h2.246a.155.155,0,0,0,.157-.157v-.56a.155.155,0,0,0-.157-.157H14.8V12.9h1.529a.155.155,0,0,0,.157-.157v-.565a.155.155,0,0,0-.157-.157H14.8v-.59h1.529a.155.155,0,0,0,.157-.157v-.56a.165.165,0,0,0-.157-.157Zm5.7-4.291V20.289a4,4,0,0,1-4.016,3.981H3.981A4.007,4.007,0,0,1,0,20.255V6.231A4.007,4.007,0,0,1,4.016,2.25H18.039A4,4,0,0,1,22.021,6.266Zm-3.028,6.026c0-3.588-3.6-6.508-8.017-6.508S2.959,8.7,2.959,12.292c0,3.215,2.851,5.908,6.7,6.419.939.2.831.546.619,1.809-.034.2-.162.791.693.433a25.909,25.909,0,0,0,6.3-4.655A5.807,5.807,0,0,0,18.993,12.292Z" transform="translate(0 -2.25)"/></svg>