<svg xmlns="http://www.w3.org/2000/svg" width="112.021" height="111.913" viewBox="0 0 112.021 111.913" fill="#fff"><g transform="translate(-1.493 -1.507)"><path d="M36.82,75.337q-1.027,0-2.059-.074A28.725,28.725,0,0,1,13.8,63.811a1.5,1.5,0,1,1,2.4-1.8,25.742,25.742,0,0,0,38.819,2.78L71.365,48.449a25.74,25.74,0,1,0-36.4-36.4l-9.371,9.322a1.5,1.5,0,1,1-2.116-2.127l9.368-9.32A28.74,28.74,0,1,1,73.486,50.57L57.141,66.915A28.723,28.723,0,0,1,36.82,75.337Z" transform="translate(31.606 0)"/><path d="M30.234,85.822A28.729,28.729,0,0,1,9.914,36.759L26.258,20.414a28.742,28.742,0,0,1,43.342,3.1,1.5,1.5,0,1,1-2.4,1.8,25.742,25.742,0,0,0-38.819-2.78L12.035,38.881a25.74,25.74,0,1,0,36.4,36.4l9.313-9.319a1.5,1.5,0,1,1,2.122,2.121L50.558,77.4a28.657,28.657,0,0,1-20.324,8.419Z" transform="translate(0 27.599)"/></g></svg>