<svg xmlns="http://www.w3.org/2000/svg" width="37.824" height="30.72" viewBox="0 0 37.824 30.72"><path d="M33.936,11.037c.024.336.024.672.024,1.008C33.96,22.293,26.16,34.1,11.9,34.1A21.907,21.907,0,0,1,0,30.621a16.036,16.036,0,0,0,1.872.1A15.525,15.525,0,0,0,11.5,27.405a7.766,7.766,0,0,1-7.248-5.376,9.776,9.776,0,0,0,1.464.12,8.2,8.2,0,0,0,2.04-.264,7.753,7.753,0,0,1-6.216-7.608v-.1a7.807,7.807,0,0,0,3.5.984A7.764,7.764,0,0,1,2.64,4.8a22.035,22.035,0,0,0,15.984,8.112,8.751,8.751,0,0,1-.192-1.776,7.76,7.76,0,0,1,13.416-5.3,15.262,15.262,0,0,0,4.92-1.872A7.731,7.731,0,0,1,33.36,8.229a15.541,15.541,0,0,0,4.464-1.2,16.664,16.664,0,0,1-3.888,4.008Z" transform="translate(0 -3.381)" fill="#fff"/></svg>